<?xml version="1.0" encoding="utf-8"?>
<!-- Generator: Adobe Illustrator 24.1.0, SVG Export Plug-In . SVG Version: 6.00 Build 0)  -->
<svg version="1.1" id="Livello_1" xmlns="http://www.w3.org/2000/svg" xmlns:xlink="http://www.w3.org/1999/xlink" x="0px" y="0px"
	 viewBox="0 0 16 16" style="enable-background:new 0 0 16 16;" xml:space="preserve">
<style type="text/css">
	.st0{fill:#9A1C30;}
	.st1{fill:#D8273A;}
	.st2{fill:url(#SVGID_1_);}
	.st3{fill:url(#SVGID_2_);}
	.st4{fill:url(#SVGID_3_);}
	.st5{fill:url(#SVGID_4_);}
</style>
<g>
	<path class="st0" d="M11.8,10.5L8,3.9L8,12l1.7,2.9c0,0,0.3,0.2,0.5,0.2s0.5-0.1,0.5-0.1s3.3-1.9,4-2.3c0.7-0.4,0.7-0.9,0.7-0.9
		l0-0.3l0-1.1L11.8,10.5z"/>
	<path class="st0" d="M0.5,10.5l0,1.4c0,0,0,0.5,0.7,0.9c0.7,0.4,4,2.3,4,2.3s0.3,0.1,0.5,0.1c0.3,0,0.5-0.2,0.5-0.2L8,12l0-8.1
		l-3.8,6.5H0.5z"/>
	<path class="st1" d="M11.8,10.5V5.5L8,12L4.2,5.5v4.9H0.5l0-6.3c0,0,0-0.3,0.4-0.7c0.3-0.2,0.6-0.4,0.9-0.6c0.5-0.3,1-0.6,1.6-0.9
		c0.5-0.3,1-0.5,1.5-0.8C5,1.1,5.1,1,5.3,1c0.3-0.2,0.7-0.1,1,0.1C6.6,1.4,8,3.9,8,3.9s1.5-2.6,1.8-2.9c0.2-0.2,0.7-0.3,1-0.1
		c0,0,0.1,0.1,0.1,0.1c0.1,0.1,0.2,0.1,0.3,0.2c0.5,0.3,1,0.5,1.4,0.8c0.5,0.3,1,0.6,1.6,0.9c0.3,0.2,0.6,0.3,0.9,0.6
		c0.4,0.4,0.4,0.7,0.4,0.7l0,6.3"/>
	<linearGradient id="SVGID_1_" gradientUnits="userSpaceOnUse" x1="7.2468" y1="9.3618" x2="5.6095" y2="11.845">
		<stop  offset="0" style="stop-color:#591223"/>
		<stop  offset="1" style="stop-color:#9A1C30"/>
	</linearGradient>
	<polygon class="st2" points="8,12 5,9 5.6,8 	"/>
	
		<linearGradient id="SVGID_2_" gradientUnits="userSpaceOnUse" x1="1597.6608" y1="9.3618" x2="1596.0236" y2="11.845" gradientTransform="matrix(-1 0 0 1 1606.433 0)">
		<stop  offset="0" style="stop-color:#591223"/>
		<stop  offset="1" style="stop-color:#9A1C30"/>
	</linearGradient>
	<polygon class="st3" points="8,12 11,9 10.4,8 	"/>
	<linearGradient id="SVGID_3_" gradientUnits="userSpaceOnUse" x1="1.9185" y1="9.4313" x2="3.7692" y2="14.5896">
		<stop  offset="0.1235" style="stop-color:#D8273A"/>
		<stop  offset="0.1937" style="stop-color:#C52437"/>
		<stop  offset="0.3218" style="stop-color:#9A1C30"/>
	</linearGradient>
	<polygon class="st4" points="0.5,9.5 0.5,11.7 4.2,10.8 4.2,9.5 	"/>
	
		<linearGradient id="SVGID_4_" gradientUnits="userSpaceOnUse" x1="99.493" y1="9.433" x2="101.3437" y2="14.5914" gradientTransform="matrix(-1 0 0 1 113.5732 0)">
		<stop  offset="0.1235" style="stop-color:#D8273A"/>
		<stop  offset="0.1937" style="stop-color:#C52437"/>
		<stop  offset="0.3218" style="stop-color:#9A1C30"/>
	</linearGradient>
	<polygon class="st5" points="15.5,9.5 15.5,11.7 11.8,10.8 11.8,9.5 	"/>
</g>
</svg>
